<?xml version="1.0" encoding="UTF-8"?>
<svg width="16px" height="16px" viewBox="0 0 16 16" version="1.1" xmlns="http://www.w3.org/2000/svg" xmlns:xlink="http://www.w3.org/1999/xlink">
    <!-- Generator: Sketch 52.6 (67491) - http://www.bohemiancoding.com/sketch -->
    <title>icon_cooperation</title>
    <desc>Created with Sketch.</desc>
    <defs>
        <linearGradient x1="0%" y1="0%" x2="98.9839234%" y2="98.9839234%" id="linearGradient-1">
            <stop stop-color="#00F2FE" offset="0%"></stop>
            <stop stop-color="#1A94FF" offset="100%"></stop>
        </linearGradient>
    </defs>
    <g id="酷耍web站2.0视觉规范" stroke="none" stroke-width="1" fill="none" fill-rule="evenodd">
        <g id="酷耍web站2.0_视觉规范" transform="translate(-92.000000, -2532.000000)">
            <g id="icon_16px" transform="translate(22.000000, 2483.000000)">
                <g id="icon_cooperation" transform="translate(70.000000, 49.000000)">
                    <rect id="Rectangle-5" fill="#FFFFFF" opacity="0" x="0" y="0" width="16" height="16"></rect>
                    <g transform="translate(1.000000, 1.000000)" fill="url(#linearGradient-1)" id="Combined-Shape">
                        <path d="M6.66666667,0.4 C6.66666667,0.178906667 6.85302778,0 7.08333333,0 C7.31363889,0 7.5,0.178906667 7.5,0.4 L7.5,1.6 C7.5,1.82109333 7.31363889,2 7.08333333,2 C6.85302778,2 6.66666667,1.82109333 6.66666667,1.6 L6.66666667,0.4 Z M3.45539685,1.78873018 C3.61814821,1.62597883 3.88181707,1.62597883 4.0445962,1.78873018 L4.87793648,2.62207046 C5.04068784,2.78482182 5.04068784,3.04851846 4.87793648,3.21126982 C4.71518513,3.37402117 4.45148848,3.37402117 4.28873713,3.21126982 L3.45539685,2.37792954 C3.29264549,2.21517818 3.29264549,1.95148154 3.45539685,1.78873018 Z M9.95539092,1.78873018 C10.1181436,1.62597883 10.3818703,1.62597883 10.544623,1.78873018 C10.7073479,1.95148154 10.7073479,2.21517818 10.544623,2.37792954 L9.71127574,3.21126982 C9.54852303,3.37402117 9.28479641,3.37402117 9.1220437,3.21126982 C8.95931877,3.04851846 8.95931877,2.78482182 9.1220437,2.62207046 L9.95539092,1.78873018 Z M13.5901639,5.81769524 C13.816694,5.81769524 14,6.01695954 14,6.26321089 L14,11.6093987 C14,11.8556797 13.816694,12.0549143 13.5901639,12.0549143 L12.3333333,12.0549143 L12.3333333,5.81769524 L13.5901639,5.81769524 Z M-3.02868841e-13,6.26321089 C-3.02868841e-13,6.01695954 0.183306011,5.81769524 0.409836066,5.81769524 L1.66666667,5.81769524 L1.66666667,12.0549143 L0.409836066,12.0549143 C0.183306011,12.0549143 -3.02868841e-13,11.8556797 -3.02868841e-13,11.6093987 L-3.02868841e-13,6.26321089 Z M5.91994309,6.85815341 C6.06026043,6.55592106 6.34251456,6.3680381 6.65655419,6.3680381 L11.5,6.3680381 L11.5,11.6880191 L8.4474118,8.4011462 C8.29422106,8.23619816 8.08193345,8.1413848 7.86519917,8.1413848 L7.06828346,8.1413848 L6.79728326,8.72498347 C6.51623686,9.33110327 5.95211287,9.70728294 5.3252688,9.70728294 C5.09848832,9.70728294 4.8765388,9.65703896 4.66666667,9.55794009 L5.91994309,6.85815341 Z M7.62645568,9.09105844 L7.91383751,9.09105844 L10.8333333,12.2708831 C10.6890944,12.432044 10.5122483,12.5577495 10.3024661,12.6220647 L6.79236882,13.8239075 C6.3729689,13.9766224 5.88682011,13.8605865 5.54929442,13.4929605 L4.38488834,12.2247135 L2.5,12.2247135 L2.5,5.95734373 L3.22489382,5.95734373 C3.38064118,5.95734373 3.52296205,5.86148282 3.59261543,5.70978263 L3.96011782,4.90920076 C4.16905055,4.45410018 4.59606795,4.16666667 5.06322784,4.16666667 L8.25421291,4.16666667 C8.48139471,4.16666667 8.66522811,4.36689421 8.66522811,4.61433593 C8.66522811,4.93516557 8.59488971,5.23501445 8.4810385,5.50967446 L6.70728867,5.50967446 C6.08440882,5.50967446 5.51493355,5.89302858 5.23642965,6.49988904 L3.79034114,9.65079424 C3.68583368,9.87847883 3.7783943,10.1553175 3.99113577,10.2606392 C4.51427593,10.5198397 4.95545965,10.7193211 5.59209481,10.6625566 C6.45733662,10.5855575 7.21448144,9.98845625 7.6027264,9.14277916 L7.62645568,9.09105844 Z"></path>
                    </g>
                </g>
                <g id="切图框" transform="translate(44.000000, 0.000000)"></g>
            </g>
        </g>
    </g>
</svg>