<?xml version="1.0" encoding="UTF-8"?>
<svg width="16px" height="16px" viewBox="0 0 16 16" version="1.1" xmlns="http://www.w3.org/2000/svg" xmlns:xlink="http://www.w3.org/1999/xlink">
    <!-- Generator: Sketch 52.6 (67491) - http://www.bohemiancoding.com/sketch -->
    <title>icon_people</title>
    <desc>Created with Sketch.</desc>
    <defs>
        <linearGradient x1="0%" y1="0%" x2="100%" y2="0%" id="linearGradient-1">
            <stop stop-color="#00F2FE" offset="0%"></stop>
            <stop stop-color="#1A94FF" offset="99.6184068%"></stop>
        </linearGradient>
        <polygon id="path-2" points="0 6.75317022 10.4822705 6.75317022 10.4822705 13.999948 0 13.999948"></polygon>
    </defs>
    <g id="酷耍web站2.0视觉规范" stroke="none" stroke-width="1" fill="none" fill-rule="evenodd">
        <g id="酷耍web站2.0_视觉规范" transform="translate(-66.000000, -2532.000000)">
            <g id="icon_16px" transform="translate(22.000000, 2483.000000)">
                <g id="icon_people" transform="translate(47.000000, 50.000000)">
                    <path d="M5.25002799,5.25 C6.69755287,5.25 7.875,4.07232892 7.875,2.62502799 C7.875,1.17744713 6.69755287,0 5.25002799,0 C3.80267108,0 2.625,1.17744713 2.625,2.62502799 C2.625,4.07232892 3.80267108,5.25 5.25002799,5.25" id="Fill-1" fill="url(#linearGradient-1)"></path>
                    <path d="M5.97480629,6.2759451 C5.89802137,6.19887942 5.78601776,6.16 5.67271733,6.16 L4.82726412,6.16 C4.71369068,6.16 4.60175533,6.19887942 4.52524342,6.2759451 C4.40655099,6.39529295 4.38921466,6.5678243 4.47350744,6.70248446 L4.92541232,7.33167569 L4.7139637,8.9796085 L5.13044513,10.002824 C5.17119233,10.1057253 5.32878912,10.1057253 5.36933156,10.002824 L5.78601776,8.9796085 L5.57463739,7.33167569 L6.02654227,6.70248446 C6.1107668,6.5678243 6.09343047,6.39529295 5.97480629,6.2759451" id="Fill-7" fill="url(#linearGradient-1)"></path>
                    <mask id="mask-3" fill="white">
                        <use xlink:href="#path-2"></use>
                    </mask>
                    <g id="Clip-5"></g>
                    <path d="M7.42405082,6.76397467 C7.30281311,6.72630356 7.17348525,6.79107244 7.12999344,6.91136578 L5.5153459,11.3722147 C5.4223377,11.6294991 5.06080492,11.6294991 4.96756721,11.3722147 L3.35314918,6.91136578 C3.31797705,6.814068 3.22703443,6.75317022 3.12926393,6.75317022 C3.10625574,6.75317022 2.00323934,6.90888133 1.63614098,7.00097911 C0.632960656,7.25208133 -2.29508197e-05,8.24568578 -2.29508197e-05,9.280948 L-2.29508197e-05,11.992708 C-2.29508197e-05,12.5490502 0.447862295,12.999948 1.00028852,12.999948 L9.48199344,12.999948 C10.034477,12.999948 10.4823049,12.5490502 10.4823049,11.992708 L10.4823049,9.26852578 C10.4820754,8.23777022 9.82447705,7.32280133 8.85130492,7.00277022 C8.49671475,6.91500578 7.42405082,6.76397467 7.42405082,6.76397467 Z" id="Fill-4" fill="url(#linearGradient-1)" mask="url(#mask-3)"></path>
                    <rect id="Rectangle-5" fill="#FFFFFF" opacity="0" mask="url(#mask-3)" x="-3" y="-1" width="16" height="16"></rect>
                </g>
                <g id="切图框" transform="translate(44.000000, 0.000000)"></g>
            </g>
        </g>
    </g>
</svg>