<?xml version="1.0" encoding="UTF-8"?>
<svg width="20px" height="20px" viewBox="0 0 20 20" version="1.1" xmlns="http://www.w3.org/2000/svg" xmlns:xlink="http://www.w3.org/1999/xlink">
    <!-- Generator: Sketch 52.6 (67491) - http://www.bohemiancoding.com/sketch -->
    <title>icon_upload_selected</title>
    <desc>Created with Sketch.</desc>
    <defs>
        <linearGradient x1="50%" y1="0%" x2="50%" y2="100%" id="linearGradient-1">
            <stop stop-color="#00F2FE" offset="0%"></stop>
            <stop stop-color="#1A94FF" offset="100%"></stop>
        </linearGradient>
        <linearGradient x1="100%" y1="0%" x2="59.4163837%" y2="100%" id="linearGradient-2">
            <stop stop-color="#00F2FE" offset="0%"></stop>
            <stop stop-color="#1A94FF" offset="100%"></stop>
        </linearGradient>
        <linearGradient x1="100%" y1="7.1934091%" x2="50%" y2="100%" id="linearGradient-3">
            <stop stop-color="#00F2FE" offset="0%"></stop>
            <stop stop-color="#1A94FF" offset="100%"></stop>
        </linearGradient>
    </defs>
    <g id="酷耍web站2.0视觉规范" stroke="none" stroke-width="1" fill="none" fill-rule="evenodd">
        <g id="酷耍web站2.0_视觉规范" transform="translate(-238.000000, -2618.000000)">
            <g id="icon_20px" transform="translate(22.000000, 2588.000000)">
                <g id="icon_upload" transform="translate(216.000000, 30.000000)">
                    <rect id="Rectangle-27" fill="#FFFFFF" opacity="0" x="0" y="0" width="20" height="20"></rect>
                    <rect id="Rectangle-7" fill="url(#linearGradient-1)" x="2" y="13" width="16" height="5"></rect>
                    <path d="M11.9973375,6 L11.9973375,11 L7.99733746,11 L7.99733746,6 L6,6 L9.99776125,1 L14,6 L11.9973375,6 Z" id="Combined-Shape" fill="url(#linearGradient-1)"></path>
                    <polygon id="Path-8" fill="url(#linearGradient-2)" points="2 12.9994409 5 9 5 12.9994409"></polygon>
                    <polygon id="Path-8-Copy" fill="url(#linearGradient-3)" transform="translate(16.500000, 11.000000) scale(-1, 1) translate(-16.500000, -11.000000) " points="15 13 18 9 18 13"></polygon>
                    <rect id="Rectangle-4" fill="#0EC0FF" transform="translate(6.707107, 10.707107) rotate(-45.000000) translate(-6.707107, -10.707107) " x="6.20710678" y="10.2071068" width="1" height="1"></rect>
                    <rect id="Rectangle-4-Copy-2" fill="#12B3FF" x="13" y="11" width="1" height="1"></rect>
                    <rect id="Rectangle-4-Copy-4" fill="#1A94FF" x="7" y="12" width="1" height="1"></rect>
                    <rect id="Rectangle-4-Copy-3" fill="#06DBFE" transform="translate(16.439340, 7.439340) rotate(-315.000000) translate(-16.439340, -7.439340) " x="15.4215729" y="6.42157288" width="2.03553391" height="2.03553391"></rect>
                    <rect id="Rectangle-4-Copy" fill="#0BC9FE" x="2" y="7" width="2" height="2"></rect>
                </g>
                <g id="切图框" transform="translate(40.000000, 0.000000)"></g>
            </g>
        </g>
    </g>
</svg>