<?xml version="1.0" encoding="UTF-8"?>
<svg width="24px" height="24px" viewBox="0 0 24 24" version="1.1" xmlns="http://www.w3.org/2000/svg" xmlns:xlink="http://www.w3.org/1999/xlink">
    <!-- Generator: Sketch 52.6 (67491) - http://www.bohemiancoding.com/sketch -->
    <title>icon_user_selected</title>
    <desc>Created with Sketch.</desc>
    <defs>
        <path d="M3.337,2.048 C4.476,1.096 6.524,0.768 8.518,0.768 C10.546,0.768 12.481,1.162 13.679,2.075 C13.734,2.116 13.796,2.321 13.867,2.688 C14.264,2.987 14.623,3.337 14.945,3.739 C15.268,4.141 15.549,4.588 15.789,5.083 C15.864,5.007 15.913,4.993 15.934,5.043 C16.43,6.199 16.493,7.744 16.493,9.402 C16.493,11.982 16.533,14.73 15.327,17.02 C15.019,17.605 14.396,18.675 13.923,19.002 C13.281,19.445 12.794,19.932 11.966,20.487 C10.816,21.258 9.888,21.959 8.558,21.959 C7.228,21.959 6.254,21.248 5.149,20.419 C4.469,19.91 3.904,19.409 3.209,18.956 C2.681,18.613 2.344,17.639 2.002,16.991 C0.791,14.703 0.536,11.973 0.536,9.398 C0.536,7.683 0.652,6.215 1.084,4.969 C1.093,4.94 1.161,4.957 1.287,5.019 C1.512,4.538 1.777,4.098 2.081,3.701 C2.385,3.304 2.721,2.96 3.087,2.669 C3.192,2.307 3.275,2.1 3.337,2.048 Z" id="path-1"></path>
        <path d="M0.228,0.998 L0.168,5.021 C0.31,4.93 0.453,4.833 0.599,4.734 L0.655,0.783 L0.228,0.998 Z" id="path-3"></path>
        <path d="M0.176,1.033 L0.128,4.914 C0.744,4.816 1.283,4.564 1.823,4.238 L1.885,0.171 L0.176,1.033 Z" id="path-5"></path>
        <path d="M0.164,4.145 C0.708,4.499 1.258,4.775 1.876,4.894 L1.826,1.034 L0.124,0.195 L0.164,4.145 Z" id="path-7"></path>
        <path d="M0.393,4.601 C0.54,4.711 0.686,4.817 0.831,4.92 L0.759,1.015 L0.312,0.794 L0.393,4.601 Z" id="path-9"></path>
        <path d="M0.217,4.224 C0.281,5.37 0.327,6.536 0.352,7.725 L0.823,7.736 C0.736,6.099 0.664,4.746 0.605,3.678 C0.554,2.755 0.495,1.89 0.427,1.084 C0.292,1.05 0.156,1.021 0.016,0.993 C0.086,2.032 0.153,3.11 0.217,4.224 Z" id="path-11"></path>
        <path d="M0.18,4.268 C0.217,5.441 0.235,6.623 0.235,7.812 L1.943,7.728 C1.932,6.564 1.909,5.398 1.872,4.231 C1.836,3.124 1.789,2.028 1.73,0.941 C1.182,0.85 0.606,0.796 0.016,0.776 C0.089,1.934 0.144,3.098 0.18,4.268 Z" id="path-13"></path>
        <path d="M1.24,0.141 C1.135,1.507 1.064,2.539 1.027,3.235 C0.988,3.945 0.936,5.081 0.869,6.644 L1.328,6.644 C1.35,5.53 1.391,4.392 1.451,3.231 C1.508,2.134 1.58,1.07 1.666,0.038 C1.521,0.07 1.379,0.104 1.24,0.141 Z" id="path-15"></path>
        <path d="M0.29,0.923 C0.19,2.399 0.128,3.51 0.102,4.256 C0.076,5.01 0.062,6.15 0.06,7.674 L1.792,7.674 C1.78,6.531 1.792,5.396 1.829,4.273 C1.866,3.18 1.929,2.014 2.018,0.775 C1.431,0.791 0.848,0.839 0.29,0.923 Z" id="path-17"></path>
        <path d="M1.24,0.141 C1.135,1.507 1.064,2.539 1.027,3.235 C0.988,3.945 0.936,5.081 0.869,6.644 L1.328,6.644 C1.35,5.53 1.391,4.392 1.451,3.231 C1.508,2.134 1.58,1.07 1.666,0.038 C1.521,0.07 1.379,0.104 1.24,0.141 Z" id="path-19"></path>
        <path d="M0.29,0.923 C0.19,2.399 0.128,3.51 0.102,4.256 C0.076,5.01 0.062,6.15 0.06,7.674 L1.792,7.674 C1.78,6.531 1.792,5.396 1.829,4.273 C1.866,3.18 1.929,2.014 2.018,0.775 C1.431,0.791 0.848,0.839 0.29,0.923 Z" id="path-21"></path>
        <path d="M1.002,0.991 C1.344,1.639 1.681,2.613 2.209,2.956 C2.475,3.129 2.721,3.309 2.964,3.495 L2.248,1.609 C2.091,1.193 1.799,0.842 1.419,0.611 L0.587,0.103 C0.71,0.404 0.849,0.701 1.002,0.991 Z" id="path-23"></path>
        <path d="M2.053,0.588 C1.673,0.82 1.381,1.171 1.224,1.586 L0.596,3.238 C0.702,3.158 0.811,3.079 0.923,3.002 C1.396,2.675 2.019,1.605 2.327,1.02 C2.47,0.749 2.594,0.473 2.705,0.191 L2.053,0.588 Z" id="path-25"></path>
        <path d="M2.087,0.669 C1.721,0.96 1.385,1.304 1.081,1.701 C0.777,2.098 0.512,2.537 0.287,3.018 C1.717,3.796 2.335,5.279 2.885,6.079 C3.467,6.923 3.944,6.051 3.866,5.41 C3.6,3.175 3.008,1.594 2.088,0.667 C2.088,0.668 2.087,0.669 2.087,0.669 Z" id="path-27"></path>
        <path d="M0.805,5.7 C0.729,6.341 0.993,7.11 1.545,6.379 C2.077,5.677 2.851,4.536 4.789,3.083 C4.549,2.588 4.268,2.141 3.945,1.739 C3.626,1.34 3.27,0.993 2.877,0.696 C1.778,1.667 1.088,3.334 0.805,5.7 Z M4.79,3.083 C4.818,3.061 4.848,3.039 4.878,3.017 C4.854,3.026 4.826,3.047 4.79,3.083 Z" id="path-29"></path>
        <path d="M4.486,0.957 C2.814,0.957 1.328,0.698 0.03,0.179 L0.829,1.557 L4.06,3.15 C4.342,3.289 4.672,3.287 4.953,3.146 L8.069,1.575 L8.958,0.124 C7.644,0.68 6.153,0.957 4.486,0.957 Z" id="path-31"></path>
        <path d="M16.339,0.792 C16.357,0.787 16.375,0.784 16.393,0.784 C16.504,0.784 16.592,0.874 16.592,0.985 L16.571,5.644 C16.568,6.159 16.367,6.653 16.01,7.023 C14.123,8.979 11.615,9.957 8.486,9.957 C5.38,9.957 2.919,9.062 1.102,7.271 C0.734,6.907 0.52,6.415 0.508,5.896 L0.386,1.044 C0.386,1.025 0.388,1.007 0.392,0.989 C0.42,0.882 0.529,0.818 0.636,0.846 C2.651,1.373 5.271,1.636 8.498,1.636 C11.723,1.636 14.336,1.355 16.339,0.792 Z" id="path-33"></path>
        <linearGradient x1="0.0040143148%" y1="0.00295650278%" x2="0.0040143148%" y2="11163.1993%" id="linearGradient-35">
            <stop stop-color="#00F2FE" offset="0%"></stop>
            <stop stop-color="#1A94FF" offset="100%"></stop>
        </linearGradient>
        <path d="M16.339,0.792 C14.336,1.355 11.723,1.636 8.498,1.636 C5.271,1.636 2.651,1.373 0.636,0.846 C0.529,0.818 0.42,0.882 0.392,0.989 C0.388,1.007 0.386,1.025 0.386,1.044 L0.508,5.896 C0.52,6.415 0.734,6.907 1.102,7.271 C2.919,9.062 5.38,9.957 8.486,9.957 C11.615,9.957 14.123,8.979 16.01,7.023 C16.367,6.653 16.568,6.159 16.571,5.644 L16.592,0.985 C16.592,0.874 16.504,0.784 16.393,0.784 C16.375,0.784 16.357,0.787 16.339,0.792" id="path-36"></path>
        <linearGradient x1="49.9992632%" y1="10.7935921%" x2="49.9992632%" y2="100.003393%" id="linearGradient-38">
            <stop stop-color="#00F2FE" offset="0%"></stop>
            <stop stop-color="#1A94FF" offset="100%"></stop>
        </linearGradient>
        <path d="M0.643,0.971 C0.707,1.725 0.724,2.725 0.696,3.969 C0.666,5.308 0.581,6.507 0.441,7.567 C0.536,7.483 0.63,7.398 0.722,7.309 C0.861,6.316 0.965,5.201 1.035,3.969 C1.101,2.831 1.139,1.789 1.15,0.844 C0.984,0.888 0.816,0.93 0.643,0.971 Z" id="path-39"></path>
        <path d="M1.133,0.611 C1.29,1.72 1.327,3.124 1.247,4.822 C1.168,6.452 1.037,7.809 0.852,8.891 C1.884,8.788 2.839,8.566 3.717,8.222 C4.256,6.964 4.616,5.693 4.796,4.411 C4.989,3.049 5.101,1.666 5.136,0.26 C3.95,0.445 2.615,0.562 1.133,0.611 Z" id="path-41"></path>
        <path d="M0.985,4.104 C1.057,5.344 1.161,6.462 1.301,7.46 C1.392,7.545 1.485,7.628 1.58,7.709 C1.44,6.648 1.355,5.446 1.324,4.104 C1.295,2.815 1.316,1.788 1.384,1.024 C1.209,0.986 1.038,0.946 0.87,0.905 C0.88,1.871 0.918,2.937 0.985,4.104 Z" id="path-43"></path>
        <path d="M1.131,3.922 C1.333,5.352 1.718,6.803 2.288,8.278 C3.163,8.598 4.121,8.806 5.16,8.9 C4.908,7.319 4.773,5.714 4.756,4.085 C4.742,2.719 4.775,1.561 4.855,0.611 C3.388,0.566 2.065,0.459 0.885,0.289 C0.875,1.469 0.956,2.68 1.131,3.922 Z" id="path-45"></path>
    </defs>
    <g id="酷耍web站2.0视觉规范" stroke="none" stroke-width="1" fill="none" fill-rule="evenodd">
        <g id="酷耍web站2.0_视觉规范" transform="translate(-232.000000, -2710.000000)">
            <g id="icon_24px" transform="translate(19.000000, 2679.000000)">
                <g id="icon_user" transform="translate(217.000000, 32.000000)">
                    <g id="Group-6">
                        <mask id="mask-2" fill="white">
                            <use xlink:href="#path-1"></use>
                        </mask>
                        <use id="Combined-Shape" fill="#666666" xlink:href="#path-1"></use>
                    </g>
                    <g id="Group-9" transform="translate(11.000000, 16.000000)">
                        <mask id="mask-4" fill="white">
                            <use xlink:href="#path-3"></use>
                        </mask>
                        <g id="Clip-8"></g>
                        <polygon id="Fill-7" fill="#E5E5E5" mask="url(#mask-4)" points="-4.832 10.021 5.656 10.021 5.656 -4.217 -4.832 -4.217"></polygon>
                    </g>
                    <g id="Group-12" transform="translate(9.000000, 17.000000)">
                        <mask id="mask-6" fill="white">
                            <use xlink:href="#path-5"></use>
                        </mask>
                        <g id="Clip-11"></g>
                        <polygon id="Fill-10" fill="#E5E5E5" mask="url(#mask-6)" points="-4.873 9.915 6.885 9.915 6.885 -4.828 -4.873 -4.828"></polygon>
                    </g>
                    <g id="Group-15" transform="translate(6.000000, 17.000000)">
                        <mask id="mask-8" fill="white">
                            <use xlink:href="#path-7"></use>
                        </mask>
                        <g id="Clip-14"></g>
                        <polygon id="Fill-13" fill="#E5E5E5" mask="url(#mask-8)" points="-4.876 9.894 6.876 9.894 6.876 -4.806 -4.876 -4.806"></polygon>
                    </g>
                    <g id="Group-18" transform="translate(5.000000, 16.000000)">
                        <mask id="mask-10" fill="white">
                            <use xlink:href="#path-9"></use>
                        </mask>
                        <g id="Clip-17"></g>
                        <polygon id="Fill-16" fill="#E5E5E5" mask="url(#mask-10)" points="-4.688 9.919 5.832 9.919 5.832 -4.206 -4.688 -4.206"></polygon>
                    </g>
                    <g id="Group-21" transform="translate(11.000000, 0.000000)">
                        <mask id="mask-12" fill="white">
                            <use xlink:href="#path-11"></use>
                        </mask>
                        <g id="Clip-20"></g>
                        <polygon id="Fill-19" fill="#E5E5E5" mask="url(#mask-12)" points="-4.984 12.736 5.824 12.736 5.824 -4.006 -4.984 -4.006"></polygon>
                    </g>
                    <g id="Group-24" transform="translate(9.000000, 0.000000)">
                        <mask id="mask-14" fill="white">
                            <use xlink:href="#path-13"></use>
                        </mask>
                        <g id="Clip-23"></g>
                        <polygon id="Fill-22" fill="#E5E5E5" mask="url(#mask-14)" points="-4.984 12.812 6.943 12.812 6.943 -4.225 -4.984 -4.225"></polygon>
                    </g>
                    <g id="Group-27" transform="translate(4.000000, 1.000000)">
                        <mask id="mask-16" fill="white">
                            <use xlink:href="#path-15"></use>
                        </mask>
                        <g id="Clip-26"></g>
                        <polygon id="Fill-25" fill="#FFFFFF" mask="url(#mask-16)" points="-4.131 11.644 6.666 11.644 6.666 -4.962 -4.131 -4.962"></polygon>
                    </g>
                    <g id="Group-30" transform="translate(6.000000, 0.000000)">
                        <mask id="mask-18" fill="white">
                            <use xlink:href="#path-17"></use>
                        </mask>
                        <g id="Clip-29"></g>
                        <polygon id="Fill-28" fill="#FFFFFF" mask="url(#mask-18)" points="-4.94 12.675 7.018 12.675 7.018 -4.225 -4.94 -4.225"></polygon>
                    </g>
                    <g id="Group-33" transform="translate(4.000000, 1.000000)">
                        <mask id="mask-20" fill="white">
                            <use xlink:href="#path-19"></use>
                        </mask>
                        <g id="Clip-32"></g>
                        <polygon id="Fill-31" fill="#E5E5E5" mask="url(#mask-20)" points="-4.131 11.644 6.666 11.644 6.666 -4.962 -4.131 -4.962"></polygon>
                    </g>
                    <g id="Group-36" transform="translate(6.000000, 0.000000)">
                        <mask id="mask-22" fill="white">
                            <use xlink:href="#path-21"></use>
                        </mask>
                        <g id="Clip-35"></g>
                        <polygon id="Fill-34" fill="#E5E5E5" mask="url(#mask-22)" points="-4.94 12.675 7.018 12.675 7.018 -4.225 -4.94 -4.225"></polygon>
                    </g>
                    <g id="Group-39" transform="translate(1.000000, 16.000000)">
                        <mask id="mask-24" fill="white">
                            <use xlink:href="#path-23"></use>
                        </mask>
                        <g id="Clip-38"></g>
                        <polygon id="Fill-37" fill="#333333" mask="url(#mask-24)" points="-4.414 8.495 7.963 8.495 7.963 -4.897 -4.414 -4.897"></polygon>
                    </g>
                    <g id="Group-42" transform="translate(13.000000, 16.000000)">
                        <mask id="mask-26" fill="white">
                            <use xlink:href="#path-25"></use>
                        </mask>
                        <g id="Clip-41"></g>
                        <polygon id="Fill-40" fill="#333333" mask="url(#mask-26)" points="-4.403 8.239 7.705 8.239 7.705 -4.809 -4.403 -4.809"></polygon>
                    </g>
                    <g id="Group-45" transform="translate(1.000000, 2.000000)">
                        <mask id="mask-28" fill="white">
                            <use xlink:href="#path-27"></use>
                        </mask>
                        <g id="Clip-44"></g>
                        <polygon id="Fill-43" fill="#404040" mask="url(#mask-28)" points="-4.713 11.428 8.875 11.428 8.875 -4.333 -4.713 -4.333"></polygon>
                    </g>
                    <g id="Group-48" transform="translate(11.000000, 2.000000)">
                        <mask id="mask-30" fill="white">
                            <use xlink:href="#path-29"></use>
                        </mask>
                        <g id="Clip-47"></g>
                        <polygon id="Fill-46" fill="#404040" mask="url(#mask-30)" points="-4.208 11.676 9.877 11.676 9.877 -4.305 -4.208 -4.305"></polygon>
                    </g>
                    <g id="Group-51" transform="translate(4.000000, 15.000000)">
                        <mask id="mask-32" fill="white">
                            <use xlink:href="#path-31"></use>
                        </mask>
                        <g id="Clip-50"></g>
                        <polygon id="Fill-49" fill="#333333" mask="url(#mask-32)" points="-4.97 8.253 13.959 8.253 13.959 -4.876 -4.97 -4.876"></polygon>
                    </g>
                    <g id="Group-54" transform="translate(0.000000, 6.000000)">
                        <mask id="mask-34" fill="white">
                            <use xlink:href="#path-33"></use>
                        </mask>
                        <g id="Clip-53"></g>
                        <polygon id="Fill-52" fill="url(#linearGradient-35)" mask="url(#mask-34)" points="0.385 9.957 16.592 9.957 16.592 0.784 0.385 0.784"></polygon>
                    </g>
                    <g id="Group-57" transform="translate(0.000000, 6.000000)">
                        <mask id="mask-37" fill="white">
                            <use xlink:href="#path-36"></use>
                        </mask>
                        <g id="Clip-56"></g>
                        <path d="M16.339,0.792 C14.336,1.355 11.723,1.636 8.498,1.636 C5.271,1.636 2.651,1.373 0.636,0.846 C0.529,0.818 0.42,0.882 0.392,0.989 C0.388,1.007 0.386,1.025 0.386,1.044 L0.508,5.896 C0.52,6.415 0.734,6.907 1.102,7.271 C2.919,9.062 5.38,9.957 8.486,9.957 C11.615,9.957 14.123,8.979 16.01,7.023 C16.367,6.653 16.568,6.159 16.571,5.644 L16.592,0.985 C16.592,0.874 16.504,0.784 16.393,0.784 C16.375,0.784 16.357,0.787 16.339,0.792" id="Fill-55" fill="url(#linearGradient-38)" mask="url(#mask-37)"></path>
                    </g>
                    <g id="Group-60" transform="translate(15.000000, 6.000000)">
                        <mask id="mask-40" fill="white">
                            <use xlink:href="#path-39"></use>
                        </mask>
                        <use id="Clip-59" fill="#FFFFFF" opacity="0.400000006" xlink:href="#path-39"></use>
                    </g>
                    <g id="Group-63" transform="translate(9.000000, 7.000000)">
                        <mask id="mask-42" fill="white">
                            <use xlink:href="#path-41"></use>
                        </mask>
                        <use id="Clip-62" fill="#FFFFFF" opacity="0.400000006" xlink:href="#path-41"></use>
                    </g>
                    <g id="Group-66" transform="translate(0.000000, 6.000000)">
                        <mask id="mask-44" fill="white">
                            <use xlink:href="#path-43"></use>
                        </mask>
                        <use id="Clip-65" fill="#FFFFFF" opacity="0.400000006" xlink:href="#path-43"></use>
                    </g>
                    <g id="Group-69" transform="translate(2.000000, 7.000000)">
                        <mask id="mask-46" fill="white">
                            <use xlink:href="#path-45"></use>
                        </mask>
                        <use id="Clip-68" fill="#FFFFFF" opacity="0.400000006" xlink:href="#path-45"></use>
                    </g>
                </g>
                <g id="24px切刀框" transform="translate(43.000000, 1.000000)"></g>
            </g>
        </g>
    </g>
</svg>