<?xml version="1.0" encoding="UTF-8"?>
<svg width="24px" height="24px" viewBox="0 0 24 24" version="1.1" xmlns="http://www.w3.org/2000/svg" xmlns:xlink="http://www.w3.org/1999/xlink">
    <!-- Generator: Sketch 52.6 (67491) - http://www.bohemiancoding.com/sketch -->
    <title>icon_question</title>
    <desc>Created with Sketch.</desc>
    <defs>
        <linearGradient x1="67.0124701%" y1="0%" x2="0%" y2="81.7128598%" id="linearGradient-1">
            <stop stop-color="#00F0FE" offset="0%"></stop>
            <stop stop-color="#1A97FF" offset="100%"></stop>
        </linearGradient>
        <linearGradient x1="0%" y1="34.6412387%" x2="100%" y2="34.6412387%" id="linearGradient-2">
            <stop stop-color="#00F0FE" offset="0%"></stop>
            <stop stop-color="#1A97FF" offset="100%"></stop>
        </linearGradient>
    </defs>
    <g id="酷耍web站2.0视觉规范" stroke="none" stroke-width="1" fill="none" fill-rule="evenodd">
        <g id="酷耍web站2.0_视觉规范" transform="translate(-638.000000, -2709.000000)">
            <g id="icon_24px" transform="translate(19.000000, 2679.000000)">
                <g id="icon_question_export" transform="translate(619.000000, 30.000000)">
                    <g id="icon_question">
                        <g>
                            <polygon id="Fill-1" fill="url(#linearGradient-1)" points="2 2.99995128 2 15.6701906 2.78912 15.6701906 2.78912 3.80509658 19.7136 3.80509658 19.7136 2.99995128"></polygon>
                            <path d="M4.122384,4.93223504 L21.940944,4.93223504 L21.940944,18.4959615 L19.721424,18.4959615 L19.721424,21.8868932 L15.270064,18.4959615 L4.122384,18.4959615 L4.122384,4.93223504 Z M16.162544,16.4351923 L17.831664,16.4351923 L16.729904,14.5001154 C17.152304,13.9286538 17.433584,13.2971068 17.574384,12.6049872 C17.719504,11.9086453 17.710704,11.2145769 17.547984,10.5224573 C17.402864,9.88863675 17.143344,9.3127906 16.769424,8.7949188 C16.404464,8.29052564 15.960144,7.87544872 15.436784,7.54936325 C14.913264,7.21921795 14.350384,7.00031197 13.747824,6.89313248 C13.118864,6.78611538 12.494384,6.80852564 11.874064,6.96020085 C11.249584,7.10749145 10.682224,7.37105556 10.172144,7.75040598 C9.675024,8.11644017 9.263824,8.56724359 8.938384,9.10297863 C8.617264,9.63416667 8.403984,10.2056282 8.298384,10.8172009 C8.192784,11.4511838 8.212464,12.0850043 8.357744,12.7188248 C8.507184,13.3528077 8.768944,13.9286538 9.142864,14.4465256 C9.503504,14.9509188 9.945584,15.3684316 10.468944,15.6987393 C10.992304,16.0246624 11.557584,16.2411325 12.164464,16.3481496 C12.788944,16.4553291 13.413424,16.4351923 14.038224,16.2879017 C14.328464,16.2164487 14.609904,16.1183632 14.882544,15.9933205 C15.155344,15.8728248 15.414704,15.7253718 15.661104,15.5514487 L16.162544,16.4351923 Z M14.64504,8.84180171 C15.40168,9.31956239 15.88104,9.99576752 16.08344,10.8707419 C16.16696,11.2323915 16.19096,11.5938786 16.15592,11.9555282 C16.12072,12.3170154 16.02616,12.6651863 15.87224,13.000041 L15.00136,11.4733829 L13.3388,11.4733829 L14.90232,14.2254598 C14.722,14.3594342 14.53064,14.4755453 14.3284,14.5736308 C14.126,14.6718786 13.91512,14.7478786 13.69512,14.801306 C12.8284,15.0067333 12.01704,14.872759 11.26072,14.3995453 C10.5084,13.921947 10.02904,13.2457419 9.82216,12.3706051 C9.62008,11.4912462 9.75192,10.6698615 10.21816,9.90645128 C10.6844,9.1388188 11.35064,8.64985299 12.2172,8.44004103 C13.08376,8.23477607 13.89304,8.36858803 14.64504,8.84180171 Z" id="Fill-4" fill="url(#linearGradient-2)"></path>
                            <rect id="矩形" x="0" y="0" width="24" height="24"></rect>
                        </g>
                    </g>
                </g>
            </g>
        </g>
    </g>
</svg>