<?xml version="1.0" encoding="UTF-8"?>
<svg width="16px" height="16px" viewBox="0 0 16 16" version="1.1" xmlns="http://www.w3.org/2000/svg" xmlns:xlink="http://www.w3.org/1999/xlink">
    <!-- Generator: Sketch 52.6 (67491) - http://www.bohemiancoding.com/sketch -->
    <title>icon_question_active</title>
    <desc>Created with Sketch.</desc>
    <defs>
        <linearGradient x1="11.412883%" y1="0%" x2="100%" y2="100%" id="linearGradient-1">
            <stop stop-color="#00F0FE" offset="0%"></stop>
            <stop stop-color="#1A97FF" offset="100%"></stop>
        </linearGradient>
    </defs>
    <g id="酷耍web站2.0视觉规范" stroke="none" stroke-width="1" fill="none" fill-rule="evenodd">
        <g id="酷耍web站2.0_视觉规范" transform="translate(-252.000000, -2505.000000)" fill="url(#linearGradient-1)" fill-rule="nonzero">
            <g id="icon_question_active_export" transform="translate(252.000000, 2505.000000)">
                <path d="M13.6577865,2.34156082 C10.5323782,-0.780520273 5.47227165,-0.780520273 2.34686332,2.34156082 L2.34212982,2.34156082 C0.841817536,3.84077938 -0.000887366995,5.87606407 7.01193268e-07,7.99822605 C0.000888769381,10.120388 0.845296801,12.1549652 2.34686332,13.6529247 L2.34212982,13.6529247 C3.84381732,15.1565062 5.8809273,16.0008516 8.00479925,15.9999994 L14.3287607,15.9999994 L14.3287607,13.1425413 C14.3269223,12.9890818 14.3739475,12.8390233 14.4630201,12.7141164 C14.964068,12.0355051 15.3508001,11.2793762 15.6078826,10.4757096 L15.6082054,10.4757096 C16.5328779,7.63120004 15.7921658,4.50787533 13.6889846,2.38302476 L13.6577865,2.34156082 Z M8.75242831,12.5519038 L6.68671994,12.5519038 L6.68671994,10.4504101 L8.75242831,10.4504101 L8.75242831,12.5519038 Z M10.948207,6.92504188 C10.6347956,7.38717784 10.2468089,7.79207721 9.80065673,8.12261483 C9.50237539,8.34060585 9.24437766,8.6105728 9.03859981,8.92002566 C8.8796194,9.27015246 8.78273836,9.64610799 8.75242831,10.0305398 L6.68671994,10.0305398 L6.60862722,9.46902751 C6.59852095,9.13801019 6.64294033,8.80760592 6.74004539,8.49150088 C6.82820538,8.24059599 6.96092733,8.00829755 7.13160416,7.80616972 C7.49727487,7.41649054 7.8876475,7.05159329 8.300215,6.71382141 C8.62303195,6.44087715 8.78446851,6.1906116 8.78452467,5.96302475 C8.79601934,5.76621308 8.72543158,5.573588 8.59009317,5.43244579 C8.42552298,5.29389156 8.21437565,5.22596914 8.00140714,5.24307571 C7.73724793,5.23519456 7.48210882,5.34119214 7.2989096,5.53492842 C7.1134078,5.72943976 7.15148537,6.1849562 7.09967628,6.66917806 L4.62387582,6.25487746 C4.66770605,5.45093296 4.99821847,4.6908268 5.55349092,4.11696641 C6.0933725,3.57713315 6.92125084,3.30721653 8.03712593,3.30721653 C8.77875368,3.27167752 9.51320957,3.46876906 10.1410803,3.87181356 C10.8286508,4.31020595 11.2412143,5.08200808 11.2291554,5.90732767 C11.2272096,6.26609485 11.1301504,6.6176843 10.948207,6.92504188 Z" id="icon_question_active"></path>
            </g>
        </g>
    </g>
</svg>