<?xml version="1.0" encoding="UTF-8"?>
<svg width="20px" height="20px" viewBox="0 0 20 20" version="1.1" xmlns="http://www.w3.org/2000/svg" xmlns:xlink="http://www.w3.org/1999/xlink">
    <!-- Generator: Sketch 52.6 (67491) - http://www.bohemiancoding.com/sketch -->
    <title>icon_refresh</title>
    <desc>Created with Sketch.</desc>
    <defs>
        <linearGradient x1="0%" y1="0%" x2="100%" y2="100%" id="linearGradient-1">
            <stop stop-color="#00F0FE" offset="0%"></stop>
            <stop stop-color="#1A97FF" offset="100%"></stop>
        </linearGradient>
    </defs>
    <g id="酷耍web站2.0视觉规范" stroke="none" stroke-width="1" fill="none" fill-rule="evenodd">
        <g id="酷耍web站2.0_视觉规范" transform="translate(-855.000000, -2618.000000)">
            <g id="icon_20px" transform="translate(22.000000, 2588.000000)">
                <g id="icon_refresh_export" transform="translate(833.000000, 30.000000)">
                    <g id="icon_refresh">
                        <g>
                            <path d="M16.3000168,5.09998268 C17.4000186,6.49996503 18,8.2000259 18,10.0000479 C18,14.3999952 14.3999943,18 10.0000459,18 C8.20002351,18 6.49996222,17.4000187 5.09997953,16.3000172 L6.49996222,14.9000154 C7.50004193,15.6000163 8.69998524,16.0000364 10.0000459,16.0000364 C13.2999925,16.0000364 16.0000359,13.2999937 16.0000359,10.0000479 C16.0000359,9.69996932 16.0000359,9.30004691 15.9000162,8.99996838 L12.9999921,8.99996838 L16.3000168,5.09998268 Z M7.00000793,11.0000316 L3.69998317,14.9000173 C2.59998142,13.500035 2,11.8000522 2,10.0000498 C2,5.60000483 5.60000571,2 10.0000518,2 C11.8000546,2 13.5000378,2.59998127 14.9000205,3.69998275 L13.5000378,5.09998463 C12.5000557,4.39998369 11.3000148,3.99996362 10.0000518,3.99996362 C6.70002699,3.99996362 3.99996411,6.70002584 3.99996411,10.0000498 C3.99996411,10.3000307 3.99996411,10.7000312 4.10000333,11.0000316 L7.00000793,11.0000316 Z" id="合并形状" fill="url(#linearGradient-1)"></path>
                            <rect id="矩形" x="0" y="0" width="20" height="20"></rect>
                        </g>
                    </g>
                </g>
            </g>
        </g>
    </g>
</svg>